<svg width="288" height="48" viewBox="0 0 288 48" fill="none" xmlns="http://www.w3.org/2000/svg">
<path d="M0 8C0 3.58172 3.58172 0 8 0H280C284.418 0 288 3.58172 288 8V40C288 44.4183 284.418 48 280 48H8C3.58173 48 0 44.4183 0 40V8Z" fill="#7F56D9"/>
<path d="M121.972 21.5625C121.919 21.0663 121.695 20.6799 121.301 20.4034C120.911 20.1269 120.403 19.9886 119.778 19.9886C119.339 19.9886 118.962 20.0549 118.648 20.1875C118.333 20.3201 118.093 20.5 117.926 20.7273C117.759 20.9545 117.674 21.214 117.67 21.5057C117.67 21.7481 117.725 21.9583 117.835 22.1364C117.949 22.3144 118.102 22.4659 118.295 22.5909C118.489 22.7121 118.703 22.8144 118.938 22.8977C119.172 22.9811 119.409 23.0511 119.648 23.108L120.739 23.3807C121.178 23.483 121.6 23.6212 122.006 23.7955C122.415 23.9697 122.78 24.1894 123.102 24.4545C123.428 24.7197 123.686 25.0398 123.875 25.4148C124.064 25.7898 124.159 26.2292 124.159 26.733C124.159 27.4148 123.985 28.0152 123.636 28.5341C123.288 29.0492 122.784 29.4527 122.125 29.7443C121.47 30.0322 120.676 30.1761 119.744 30.1761C118.839 30.1761 118.053 30.036 117.386 29.7557C116.723 29.4754 116.205 29.0663 115.83 28.5284C115.458 27.9905 115.258 27.3352 115.227 26.5625H117.301C117.331 26.9678 117.456 27.3049 117.676 27.5739C117.896 27.8428 118.182 28.0436 118.534 28.1761C118.89 28.3087 119.288 28.375 119.727 28.375C120.186 28.375 120.587 28.3068 120.932 28.1705C121.28 28.0303 121.553 27.8371 121.75 27.5909C121.947 27.3409 122.047 27.0492 122.051 26.7159C122.047 26.4129 121.958 26.1629 121.784 25.9659C121.61 25.7652 121.366 25.5985 121.051 25.4659C120.741 25.3295 120.377 25.2083 119.96 25.1023L118.636 24.7614C117.678 24.5152 116.92 24.142 116.364 23.642C115.811 23.1383 115.534 22.4697 115.534 21.6364C115.534 20.9508 115.72 20.3504 116.091 19.8352C116.466 19.3201 116.975 18.9205 117.619 18.6364C118.263 18.3485 118.992 18.2045 119.807 18.2045C120.633 18.2045 121.356 18.3485 121.977 18.6364C122.602 18.9205 123.093 19.3163 123.449 19.8239C123.805 20.3277 123.989 20.9072 124 21.5625H121.972ZM125.947 30V21.2727H128.004V30H125.947ZM126.982 20.0341C126.656 20.0341 126.375 19.9261 126.141 19.7102C125.906 19.4905 125.788 19.2273 125.788 18.9205C125.788 18.6098 125.906 18.3466 126.141 18.1307C126.375 17.911 126.656 17.8011 126.982 17.8011C127.311 17.8011 127.591 17.911 127.822 18.1307C128.057 18.3466 128.175 18.6098 128.175 18.9205C128.175 19.2273 128.057 19.4905 127.822 19.7102C127.591 19.9261 127.311 20.0341 126.982 20.0341ZM133.915 33.4545C133.176 33.4545 132.542 33.3542 132.011 33.1534C131.481 32.9564 131.055 32.6913 130.733 32.358C130.411 32.0246 130.188 31.6553 130.062 31.25L131.915 30.8011C131.998 30.9716 132.119 31.1402 132.278 31.3068C132.438 31.4773 132.652 31.6174 132.92 31.7273C133.193 31.8409 133.536 31.8977 133.949 31.8977C134.532 31.8977 135.015 31.7557 135.398 31.4716C135.78 31.1913 135.972 30.7292 135.972 30.0852V28.4318H135.869C135.763 28.6439 135.608 28.8617 135.403 29.0852C135.203 29.3087 134.936 29.4962 134.602 29.6477C134.273 29.7992 133.858 29.875 133.358 29.875C132.688 29.875 132.08 29.7178 131.534 29.4034C130.992 29.0852 130.561 28.6117 130.239 27.983C129.92 27.3504 129.761 26.5587 129.761 25.608C129.761 24.6496 129.92 23.8409 130.239 23.1818C130.561 22.5189 130.994 22.017 131.54 21.6761C132.085 21.3314 132.693 21.1591 133.364 21.1591C133.875 21.1591 134.295 21.2462 134.625 21.4205C134.958 21.5909 135.223 21.7973 135.42 22.0398C135.617 22.2784 135.767 22.5038 135.869 22.7159H135.983V21.2727H138.011V30.142C138.011 30.8883 137.833 31.5057 137.477 31.9943C137.121 32.483 136.634 32.8485 136.017 33.0909C135.4 33.3333 134.699 33.4545 133.915 33.4545ZM133.932 28.2614C134.367 28.2614 134.739 28.1553 135.045 27.9432C135.352 27.7311 135.585 27.4261 135.744 27.0284C135.903 26.6307 135.983 26.1534 135.983 25.5966C135.983 25.0473 135.903 24.5663 135.744 24.1534C135.589 23.7405 135.358 23.4205 135.051 23.1932C134.748 22.9621 134.375 22.8466 133.932 22.8466C133.473 22.8466 133.091 22.9659 132.784 23.2045C132.477 23.4432 132.246 23.7708 132.091 24.1875C131.936 24.6004 131.858 25.0701 131.858 25.5966C131.858 26.1307 131.936 26.5985 132.091 27C132.25 27.3977 132.483 27.7083 132.79 27.9318C133.1 28.1515 133.481 28.2614 133.932 28.2614ZM142.176 24.8864V30H140.119V21.2727H142.085V22.7557H142.188C142.388 22.267 142.708 21.8788 143.148 21.5909C143.591 21.303 144.138 21.1591 144.79 21.1591C145.392 21.1591 145.917 21.2879 146.364 21.5455C146.814 21.803 147.163 22.1761 147.409 22.6648C147.659 23.1534 147.782 23.7462 147.778 24.4432V30H145.722V24.7614C145.722 24.178 145.57 23.7216 145.267 23.392C144.968 23.0625 144.553 22.8977 144.023 22.8977C143.663 22.8977 143.343 22.9773 143.062 23.1364C142.786 23.2917 142.568 23.517 142.409 23.8125C142.254 24.108 142.176 24.4659 142.176 24.8864ZM159.401 26.3295V21.2727H161.457V30H159.463V28.4489H159.372C159.175 28.9375 158.851 29.3371 158.401 29.6477C157.954 29.9583 157.402 30.1136 156.747 30.1136C156.175 30.1136 155.67 29.9867 155.23 29.733C154.795 29.4754 154.454 29.1023 154.207 28.6136C153.961 28.1212 153.838 27.5265 153.838 26.8295V21.2727H155.895V26.5114C155.895 27.0644 156.046 27.5038 156.349 27.8295C156.652 28.1553 157.05 28.3182 157.543 28.3182C157.846 28.3182 158.139 28.2443 158.423 28.0966C158.707 27.9489 158.94 27.7292 159.122 27.4375C159.308 27.142 159.401 26.7727 159.401 26.3295ZM163.572 33.2727V21.2727H165.595V22.7159H165.714C165.821 22.5038 165.97 22.2784 166.163 22.0398C166.357 21.7973 166.618 21.5909 166.947 21.4205C167.277 21.2462 167.697 21.1591 168.209 21.1591C168.883 21.1591 169.491 21.3314 170.033 21.6761C170.578 22.017 171.01 22.5227 171.328 23.1932C171.65 23.8598 171.811 24.678 171.811 25.6477C171.811 26.6061 171.654 27.4205 171.339 28.0909C171.025 28.7614 170.597 29.2727 170.055 29.625C169.514 29.9773 168.9 30.1534 168.214 30.1534C167.714 30.1534 167.3 30.0701 166.97 29.9034C166.641 29.7367 166.375 29.536 166.175 29.3011C165.978 29.0625 165.824 28.8371 165.714 28.625H165.629V33.2727H163.572ZM165.589 25.6364C165.589 26.2008 165.669 26.6951 165.828 27.1193C165.991 27.5436 166.224 27.875 166.527 28.1136C166.834 28.3485 167.205 28.4659 167.641 28.4659C168.095 28.4659 168.476 28.3447 168.783 28.1023C169.089 27.8561 169.321 27.5208 169.476 27.0966C169.635 26.6686 169.714 26.1818 169.714 25.6364C169.714 25.0947 169.637 24.6136 169.482 24.1932C169.326 23.7727 169.095 23.4432 168.788 23.2045C168.482 22.9659 168.099 22.8466 167.641 22.8466C167.201 22.8466 166.828 22.9621 166.521 23.1932C166.214 23.4242 165.982 23.7481 165.822 24.1648C165.667 24.5814 165.589 25.072 165.589 25.6364Z" fill="white"/>
</svg>
