<svg width="340" height="112" viewBox="0 0 340 112" fill="none" xmlns="http://www.w3.org/2000/svg">
<mask id="path-1-inside-1_2080_361" fill="white">
<path d="M0 0H340V112H0V0Z"/>
</mask>
<path d="M0 0H340V112H0V0Z" fill="#FAFAFA"/>
<path d="M0 1H340V-1H0V1Z" fill="#E9EAEB" mask="url(#path-1-inside-1_2080_361)"/>
<path d="M32 40C32 35.5817 35.5817 32 40 32H300C304.418 32 308 35.5817 308 40V72C308 76.4183 304.418 80 300 80H40C35.5817 80 32 76.4183 32 72V40Z" fill="#7F56D9"/>
<path d="M134.443 54.0795C134.348 53.7727 134.218 53.4981 134.051 53.2557C133.888 53.0095 133.691 52.7992 133.46 52.625C133.233 52.4508 132.972 52.3201 132.676 52.233C132.381 52.142 132.059 52.0966 131.71 52.0966C131.085 52.0966 130.528 52.2538 130.04 52.5682C129.551 52.8826 129.167 53.3447 128.886 53.9545C128.61 54.5606 128.472 55.2992 128.472 56.1705C128.472 57.0492 128.61 57.7936 128.886 58.4034C129.163 59.0133 129.547 59.4773 130.04 59.7955C130.532 60.1098 131.104 60.267 131.756 60.267C132.347 60.267 132.858 60.1534 133.29 59.9261C133.725 59.6989 134.061 59.3769 134.295 58.9602C134.53 58.5398 134.648 58.0473 134.648 57.483L135.125 57.5568H131.966V55.9091H136.688V57.3068C136.688 58.303 136.475 59.1648 136.051 59.892C135.627 60.6193 135.044 61.1799 134.301 61.5739C133.559 61.964 132.706 62.1591 131.744 62.1591C130.672 62.1591 129.731 61.9186 128.92 61.4375C128.114 60.9527 127.483 60.2652 127.028 59.375C126.578 58.4811 126.352 57.4205 126.352 56.1932C126.352 55.2538 126.485 54.4148 126.75 53.6761C127.019 52.9375 127.394 52.3106 127.875 51.7955C128.356 51.2765 128.92 50.8826 129.568 50.6136C130.216 50.3409 130.92 50.2045 131.682 50.2045C132.326 50.2045 132.926 50.2992 133.483 50.4886C134.04 50.6742 134.534 50.9394 134.966 51.2841C135.402 51.6288 135.759 52.0379 136.04 52.5114C136.32 52.9848 136.504 53.5076 136.591 54.0795H134.443ZM142.499 62.1705C141.624 62.1705 140.868 61.9886 140.232 61.625C139.599 61.2576 139.112 60.7386 138.771 60.0682C138.43 59.3939 138.26 58.6004 138.26 57.6875C138.26 56.7898 138.43 56.0019 138.771 55.3239C139.116 54.642 139.597 54.1117 140.214 53.733C140.832 53.3504 141.557 53.1591 142.391 53.1591C142.929 53.1591 143.436 53.2462 143.913 53.4205C144.394 53.5909 144.819 53.8561 145.186 54.2159C145.557 54.5758 145.849 55.0341 146.061 55.5909C146.273 56.1439 146.379 56.803 146.379 57.5682V58.1989H139.226V56.8125H144.408C144.404 56.4186 144.319 56.0682 144.152 55.7614C143.985 55.4508 143.752 55.2064 143.453 55.0284C143.158 54.8504 142.813 54.7614 142.419 54.7614C141.999 54.7614 141.629 54.8636 141.311 55.0682C140.993 55.2689 140.745 55.5341 140.567 55.8636C140.393 56.1894 140.304 56.5473 140.3 56.9375V58.1477C140.3 58.6553 140.393 59.0909 140.578 59.4545C140.764 59.8144 141.023 60.0909 141.357 60.2841C141.69 60.4735 142.08 60.5682 142.527 60.5682C142.826 60.5682 143.097 60.5265 143.339 60.4432C143.582 60.3561 143.792 60.2292 143.97 60.0625C144.148 59.8958 144.283 59.6894 144.374 59.4432L146.294 59.6591C146.173 60.1667 145.942 60.6098 145.601 60.9886C145.264 61.3636 144.832 61.6553 144.305 61.8636C143.779 62.0682 143.177 62.1705 142.499 62.1705ZM152.477 53.2727V54.8636H147.46V53.2727H152.477ZM148.699 51.1818H150.756V59.375C150.756 59.6515 150.797 59.8636 150.881 60.0114C150.968 60.1553 151.081 60.2538 151.222 60.3068C151.362 60.3598 151.517 60.3864 151.688 60.3864C151.816 60.3864 151.934 60.3769 152.04 60.358C152.15 60.339 152.233 60.322 152.29 60.3068L152.636 61.9148C152.527 61.9527 152.369 61.9943 152.165 62.0398C151.964 62.0852 151.718 62.1117 151.426 62.1193C150.911 62.1345 150.447 62.0568 150.034 61.8864C149.621 61.7121 149.294 61.4432 149.051 61.0795C148.813 60.7159 148.695 60.2614 148.699 59.7159V51.1818ZM165.064 55.5795L163.189 55.7841C163.136 55.5947 163.043 55.4167 162.911 55.25C162.782 55.0833 162.607 54.9489 162.388 54.8466C162.168 54.7443 161.899 54.6932 161.581 54.6932C161.153 54.6932 160.793 54.786 160.501 54.9716C160.214 55.1572 160.071 55.3977 160.075 55.6932C160.071 55.947 160.164 56.1534 160.354 56.3125C160.547 56.4716 160.865 56.6023 161.308 56.7045L162.797 57.0227C163.623 57.2008 164.236 57.483 164.638 57.8693C165.043 58.2557 165.248 58.7614 165.251 59.3864C165.248 59.9356 165.087 60.4205 164.768 60.8409C164.454 61.2576 164.017 61.5833 163.456 61.8182C162.895 62.053 162.251 62.1705 161.524 62.1705C160.456 62.1705 159.596 61.947 158.945 61.5C158.293 61.0492 157.905 60.4223 157.78 59.6193L159.786 59.4261C159.876 59.8201 160.07 60.1174 160.365 60.3182C160.661 60.5189 161.045 60.6193 161.518 60.6193C162.007 60.6193 162.399 60.5189 162.695 60.3182C162.994 60.1174 163.143 59.8693 163.143 59.5739C163.143 59.3239 163.047 59.1174 162.854 58.9545C162.664 58.7917 162.369 58.6667 161.967 58.5795L160.479 58.267C159.642 58.0928 159.022 57.7992 158.621 57.3864C158.219 56.9697 158.02 56.4432 158.024 55.8068C158.02 55.2689 158.166 54.803 158.462 54.4091C158.761 54.0114 159.176 53.7045 159.706 53.4886C160.24 53.2689 160.856 53.1591 161.553 53.1591C162.575 53.1591 163.38 53.3769 163.967 53.8125C164.558 54.2481 164.924 54.8371 165.064 55.5795ZM171.305 53.2727V54.8636H166.288V53.2727H171.305ZM167.527 51.1818H169.584V59.375C169.584 59.6515 169.625 59.8636 169.709 60.0114C169.796 60.1553 169.91 60.2538 170.05 60.3068C170.19 60.3598 170.345 60.3864 170.516 60.3864C170.644 60.3864 170.762 60.3769 170.868 60.358C170.978 60.339 171.061 60.322 171.118 60.3068L171.464 61.9148C171.355 61.9527 171.197 61.9943 170.993 62.0398C170.792 62.0852 170.546 62.1117 170.254 62.1193C169.739 62.1345 169.275 62.0568 168.862 61.8864C168.449 61.7121 168.122 61.4432 167.879 61.0795C167.641 60.7159 167.523 60.2614 167.527 59.7159V51.1818ZM175.537 62.1761C174.984 62.1761 174.486 62.0777 174.043 61.8807C173.603 61.6799 173.255 61.3845 172.997 60.9943C172.743 60.6042 172.616 60.1231 172.616 59.5511C172.616 59.0587 172.707 58.6515 172.889 58.3295C173.071 58.0076 173.319 57.75 173.634 57.5568C173.948 57.3636 174.302 57.2178 174.696 57.1193C175.094 57.017 175.505 56.9432 175.929 56.8977C176.44 56.8447 176.855 56.7973 177.173 56.7557C177.491 56.7102 177.723 56.642 177.866 56.5511C178.014 56.4564 178.088 56.3106 178.088 56.1136V56.0795C178.088 55.6515 177.961 55.3201 177.707 55.0852C177.454 54.8504 177.088 54.733 176.611 54.733C176.107 54.733 175.707 54.8428 175.412 55.0625C175.12 55.2822 174.923 55.5417 174.821 55.8409L172.901 55.5682C173.052 55.0379 173.302 54.5947 173.651 54.2386C173.999 53.8788 174.425 53.6098 174.929 53.4318C175.433 53.25 175.99 53.1591 176.599 53.1591C177.02 53.1591 177.438 53.2083 177.855 53.3068C178.272 53.4053 178.652 53.5682 178.997 53.7955C179.342 54.0189 179.618 54.3239 179.827 54.7102C180.039 55.0966 180.145 55.5795 180.145 56.1591V62H178.168V60.8011H178.099C177.974 61.0436 177.798 61.2708 177.571 61.483C177.348 61.6913 177.065 61.8598 176.724 61.9886C176.387 62.1136 175.991 62.1761 175.537 62.1761ZM176.071 60.6648C176.484 60.6648 176.842 60.5833 177.145 60.4205C177.448 60.2538 177.681 60.0341 177.844 59.7614C178.01 59.4886 178.094 59.1913 178.094 58.8693V57.8409C178.029 57.8939 177.92 57.9432 177.764 57.9886C177.613 58.0341 177.442 58.0739 177.253 58.108C177.063 58.142 176.876 58.1723 176.69 58.1989C176.505 58.2254 176.344 58.2481 176.207 58.267C175.901 58.3087 175.626 58.3769 175.384 58.4716C175.141 58.5663 174.95 58.6989 174.81 58.8693C174.67 59.036 174.599 59.2519 174.599 59.517C174.599 59.8958 174.738 60.1818 175.014 60.375C175.291 60.5682 175.643 60.6648 176.071 60.6648ZM182.213 62V53.2727H184.207V54.7273H184.298C184.457 54.2235 184.73 53.8352 185.116 53.5625C185.507 53.286 185.952 53.1477 186.452 53.1477C186.565 53.1477 186.692 53.1534 186.832 53.1648C186.976 53.1723 187.096 53.1856 187.19 53.2045V55.0966C187.103 55.0663 186.965 55.0398 186.776 55.017C186.59 54.9905 186.41 54.9773 186.236 54.9773C185.861 54.9773 185.524 55.0587 185.224 55.2216C184.929 55.3807 184.696 55.6023 184.526 55.8864C184.355 56.1705 184.27 56.4981 184.27 56.8693V62H182.213ZM193.384 53.2727V54.8636H188.366V53.2727H193.384ZM189.605 51.1818H191.662V59.375C191.662 59.6515 191.704 59.8636 191.787 60.0114C191.874 60.1553 191.988 60.2538 192.128 60.3068C192.268 60.3598 192.423 60.3864 192.594 60.3864C192.723 60.3864 192.84 60.3769 192.946 60.358C193.056 60.339 193.139 60.322 193.196 60.3068L193.543 61.9148C193.433 61.9527 193.276 61.9943 193.071 62.0398C192.87 62.0852 192.624 62.1117 192.332 62.1193C191.817 62.1345 191.353 62.0568 190.94 61.8864C190.527 61.7121 190.2 61.4432 189.957 61.0795C189.719 60.7159 189.601 60.2614 189.605 59.7159V51.1818ZM198.874 62.1705C197.999 62.1705 197.243 61.9886 196.607 61.625C195.974 61.2576 195.487 60.7386 195.146 60.0682C194.805 59.3939 194.635 58.6004 194.635 57.6875C194.635 56.7898 194.805 56.0019 195.146 55.3239C195.491 54.642 195.972 54.1117 196.589 53.733C197.207 53.3504 197.932 53.1591 198.766 53.1591C199.304 53.1591 199.811 53.2462 200.288 53.4205C200.769 53.5909 201.194 53.8561 201.561 54.2159C201.932 54.5758 202.224 55.0341 202.436 55.5909C202.648 56.1439 202.754 56.803 202.754 57.5682V58.1989H195.601V56.8125H200.783C200.779 56.4186 200.694 56.0682 200.527 55.7614C200.36 55.4508 200.127 55.2064 199.828 55.0284C199.533 54.8504 199.188 54.7614 198.794 54.7614C198.374 54.7614 198.004 54.8636 197.686 55.0682C197.368 55.2689 197.12 55.5341 196.942 55.8636C196.768 56.1894 196.679 56.5473 196.675 56.9375V58.1477C196.675 58.6553 196.768 59.0909 196.953 59.4545C197.139 59.8144 197.398 60.0909 197.732 60.2841C198.065 60.4735 198.455 60.5682 198.902 60.5682C199.201 60.5682 199.472 60.5265 199.714 60.4432C199.957 60.3561 200.167 60.2292 200.345 60.0625C200.523 59.8958 200.658 59.6894 200.749 59.4432L202.669 59.6591C202.548 60.1667 202.317 60.6098 201.976 60.9886C201.639 61.3636 201.207 61.6553 200.68 61.8636C200.154 62.0682 199.552 62.1705 198.874 62.1705ZM207.733 62.1534C207.047 62.1534 206.434 61.9773 205.892 61.625C205.35 61.2727 204.922 60.7614 204.608 60.0909C204.294 59.4205 204.136 58.6061 204.136 57.6477C204.136 56.678 204.295 55.8598 204.614 55.1932C204.936 54.5227 205.369 54.017 205.915 53.6761C206.46 53.3314 207.068 53.1591 207.739 53.1591C208.25 53.1591 208.67 53.2462 209 53.4205C209.33 53.5909 209.591 53.7973 209.784 54.0398C209.977 54.2784 210.127 54.5038 210.233 54.7159H210.318V50.3636H212.381V62H210.358V60.625H210.233C210.127 60.8371 209.973 61.0625 209.773 61.3011C209.572 61.536 209.307 61.7367 208.977 61.9034C208.648 62.0701 208.233 62.1534 207.733 62.1534ZM208.307 60.4659C208.742 60.4659 209.114 60.3485 209.42 60.1136C209.727 59.875 209.96 59.5436 210.119 59.1193C210.278 58.6951 210.358 58.2008 210.358 57.6364C210.358 57.072 210.278 56.5814 210.119 56.1648C209.964 55.7481 209.733 55.4242 209.426 55.1932C209.123 54.9621 208.75 54.8466 208.307 54.8466C207.848 54.8466 207.466 54.9659 207.159 55.2045C206.852 55.4432 206.621 55.7727 206.466 56.1932C206.311 56.6136 206.233 57.0947 206.233 57.6364C206.233 58.1818 206.311 58.6686 206.466 59.0966C206.625 59.5208 206.858 59.8561 207.165 60.1023C207.475 60.3447 207.856 60.4659 208.307 60.4659Z" fill="white"/>
</svg>
