<svg width="190" height="44" viewBox="0 0 190 44" fill="none" xmlns="http://www.w3.org/2000/svg">
<path d="M0 8C0 3.58172 3.58172 0 8 0H75C79.4183 0 83 3.58172 83 8V36C83 40.4183 79.4183 44 75 44H8C3.58172 44 0 40.4183 0 36V8Z" fill="white"/>
<path d="M19.1477 28V16.3636H21.2557V26.233H26.3807V28H19.1477ZM31.9261 28.1705C31.0739 28.1705 30.3352 27.983 29.7102 27.608C29.0852 27.233 28.6004 26.7083 28.2557 26.0341C27.9148 25.3598 27.7443 24.572 27.7443 23.6705C27.7443 22.7689 27.9148 21.9792 28.2557 21.3011C28.6004 20.6231 29.0852 20.0966 29.7102 19.7216C30.3352 19.3466 31.0739 19.1591 31.9261 19.1591C32.7784 19.1591 33.517 19.3466 34.142 19.7216C34.767 20.0966 35.25 20.6231 35.5909 21.3011C35.9356 21.9792 36.108 22.7689 36.108 23.6705C36.108 24.572 35.9356 25.3598 35.5909 26.0341C35.25 26.7083 34.767 27.233 34.142 27.608C33.517 27.983 32.7784 28.1705 31.9261 28.1705ZM31.9375 26.5227C32.3996 26.5227 32.786 26.3958 33.0966 26.142C33.4072 25.8845 33.6383 25.5398 33.7898 25.108C33.9451 24.6761 34.0227 24.1951 34.0227 23.6648C34.0227 23.1307 33.9451 22.6477 33.7898 22.2159C33.6383 21.7803 33.4072 21.4337 33.0966 21.1761C32.786 20.9186 32.3996 20.7898 31.9375 20.7898C31.464 20.7898 31.0701 20.9186 30.7557 21.1761C30.4451 21.4337 30.2121 21.7803 30.0568 22.2159C29.9053 22.6477 29.8295 23.1307 29.8295 23.6648C29.8295 24.1951 29.9053 24.6761 30.0568 25.108C30.2121 25.5398 30.4451 25.8845 30.7557 26.142C31.0701 26.3958 31.464 26.5227 31.9375 26.5227ZM41.6491 31.4545C40.9105 31.4545 40.276 31.3542 39.7457 31.1534C39.2154 30.9564 38.7893 30.6913 38.4673 30.358C38.1454 30.0246 37.9219 29.6553 37.7969 29.25L39.6491 28.8011C39.7325 28.9716 39.8537 29.1402 40.0128 29.3068C40.1719 29.4773 40.3859 29.6174 40.6548 29.7273C40.9276 29.8409 41.2704 29.8977 41.6832 29.8977C42.2666 29.8977 42.7495 29.7557 43.1321 29.4716C43.5147 29.1913 43.706 28.7292 43.706 28.0852V26.4318H43.6037C43.4976 26.6439 43.3423 26.8617 43.1378 27.0852C42.937 27.3087 42.67 27.4962 42.3366 27.6477C42.0071 27.7992 41.5923 27.875 41.0923 27.875C40.4219 27.875 39.8139 27.7178 39.2685 27.4034C38.7268 27.0852 38.295 26.6117 37.973 25.983C37.6548 25.3504 37.4957 24.5587 37.4957 23.608C37.4957 22.6496 37.6548 21.8409 37.973 21.1818C38.295 20.5189 38.7287 20.017 39.2741 19.6761C39.8196 19.3314 40.4276 19.1591 41.098 19.1591C41.6094 19.1591 42.0298 19.2462 42.3594 19.4205C42.6927 19.5909 42.9579 19.7973 43.1548 20.0398C43.3518 20.2784 43.5014 20.5038 43.6037 20.7159H43.7173V19.2727H45.7457V28.142C45.7457 28.8883 45.5677 29.5057 45.2116 29.9943C44.8556 30.483 44.3688 30.8485 43.7514 31.0909C43.134 31.3333 42.4332 31.4545 41.6491 31.4545ZM41.6662 26.2614C42.1018 26.2614 42.473 26.1553 42.7798 25.9432C43.0866 25.7311 43.3196 25.4261 43.4787 25.0284C43.6378 24.6307 43.7173 24.1534 43.7173 23.5966C43.7173 23.0473 43.6378 22.5663 43.4787 22.1534C43.3234 21.7405 43.0923 21.4205 42.7855 21.1932C42.4825 20.9621 42.1094 20.8466 41.6662 20.8466C41.2079 20.8466 40.8253 20.9659 40.5185 21.2045C40.2116 21.4432 39.9806 21.7708 39.8253 22.1875C39.67 22.6004 39.5923 23.0701 39.5923 23.5966C39.5923 24.1307 39.67 24.5985 39.8253 25C39.9844 25.3977 40.2173 25.7083 40.5241 25.9318C40.8348 26.1515 41.2154 26.2614 41.6662 26.2614ZM51.8224 28V19.2727H53.8793V28H51.8224ZM52.8565 18.0341C52.5308 18.0341 52.2505 17.9261 52.0156 17.7102C51.7808 17.4905 51.6634 17.2273 51.6634 16.9205C51.6634 16.6098 51.7808 16.3466 52.0156 16.1307C52.2505 15.911 52.5308 15.8011 52.8565 15.8011C53.1861 15.8011 53.4664 15.911 53.6974 16.1307C53.9323 16.3466 54.0497 16.6098 54.0497 16.9205C54.0497 17.2273 53.9323 17.4905 53.6974 17.7102C53.4664 17.9261 53.1861 18.0341 52.8565 18.0341ZM58.0511 22.8864V28H55.9943V19.2727H57.9602V20.7557H58.0625C58.2633 20.267 58.5833 19.8788 59.0227 19.5909C59.4659 19.303 60.0133 19.1591 60.6648 19.1591C61.267 19.1591 61.7917 19.2879 62.2386 19.5455C62.6894 19.803 63.0379 20.1761 63.2841 20.6648C63.5341 21.1534 63.6572 21.7462 63.6534 22.4432V28H61.5966V22.7614C61.5966 22.178 61.4451 21.7216 61.142 21.392C60.8428 21.0625 60.428 20.8977 59.8977 20.8977C59.5379 20.8977 59.2178 20.9773 58.9375 21.1364C58.661 21.2917 58.4432 21.517 58.2841 21.8125C58.1288 22.108 58.0511 22.4659 58.0511 22.8864Z" fill="#414651"/>
<path d="M95 8C95 3.58172 98.5817 0 103 0H182C186.418 0 190 3.58172 190 8V36C190 40.4183 186.418 44 182 44H103C98.5817 44 95 40.4183 95 36V8Z" fill="#7F56D9"/>
<path d="M120.472 19.5625C120.419 19.0663 120.195 18.6799 119.801 18.4034C119.411 18.1269 118.903 17.9886 118.278 17.9886C117.839 17.9886 117.462 18.0549 117.148 18.1875C116.833 18.3201 116.593 18.5 116.426 18.7273C116.259 18.9545 116.174 19.214 116.17 19.5057C116.17 19.7481 116.225 19.9583 116.335 20.1364C116.449 20.3144 116.602 20.4659 116.795 20.5909C116.989 20.7121 117.203 20.8144 117.438 20.8977C117.672 20.9811 117.909 21.0511 118.148 21.108L119.239 21.3807C119.678 21.483 120.1 21.6212 120.506 21.7955C120.915 21.9697 121.28 22.1894 121.602 22.4545C121.928 22.7197 122.186 23.0398 122.375 23.4148C122.564 23.7898 122.659 24.2292 122.659 24.733C122.659 25.4148 122.485 26.0152 122.136 26.5341C121.788 27.0492 121.284 27.4527 120.625 27.7443C119.97 28.0322 119.176 28.1761 118.244 28.1761C117.339 28.1761 116.553 28.036 115.886 27.7557C115.223 27.4754 114.705 27.0663 114.33 26.5284C113.958 25.9905 113.758 25.3352 113.727 24.5625H115.801C115.831 24.9678 115.956 25.3049 116.176 25.5739C116.396 25.8428 116.682 26.0436 117.034 26.1761C117.39 26.3087 117.788 26.375 118.227 26.375C118.686 26.375 119.087 26.3068 119.432 26.1705C119.78 26.0303 120.053 25.8371 120.25 25.5909C120.447 25.3409 120.547 25.0492 120.551 24.7159C120.547 24.4129 120.458 24.1629 120.284 23.9659C120.11 23.7652 119.866 23.5985 119.551 23.4659C119.241 23.3295 118.877 23.2083 118.46 23.1023L117.136 22.7614C116.178 22.5152 115.42 22.142 114.864 21.642C114.311 21.1383 114.034 20.4697 114.034 19.6364C114.034 18.9508 114.22 18.3504 114.591 17.8352C114.966 17.3201 115.475 16.9205 116.119 16.6364C116.763 16.3485 117.492 16.2045 118.307 16.2045C119.133 16.2045 119.856 16.3485 120.477 16.6364C121.102 16.9205 121.593 17.3163 121.949 17.8239C122.305 18.3277 122.489 18.9072 122.5 19.5625H120.472ZM124.447 28V19.2727H126.504V28H124.447ZM125.482 18.0341C125.156 18.0341 124.875 17.9261 124.641 17.7102C124.406 17.4905 124.288 17.2273 124.288 16.9205C124.288 16.6098 124.406 16.3466 124.641 16.1307C124.875 15.911 125.156 15.8011 125.482 15.8011C125.811 15.8011 126.091 15.911 126.322 16.1307C126.557 16.3466 126.675 16.6098 126.675 16.9205C126.675 17.2273 126.557 17.4905 126.322 17.7102C126.091 17.9261 125.811 18.0341 125.482 18.0341ZM132.415 31.4545C131.676 31.4545 131.042 31.3542 130.511 31.1534C129.981 30.9564 129.555 30.6913 129.233 30.358C128.911 30.0246 128.688 29.6553 128.562 29.25L130.415 28.8011C130.498 28.9716 130.619 29.1402 130.778 29.3068C130.938 29.4773 131.152 29.6174 131.42 29.7273C131.693 29.8409 132.036 29.8977 132.449 29.8977C133.032 29.8977 133.515 29.7557 133.898 29.4716C134.28 29.1913 134.472 28.7292 134.472 28.0852V26.4318H134.369C134.263 26.6439 134.108 26.8617 133.903 27.0852C133.703 27.3087 133.436 27.4962 133.102 27.6477C132.773 27.7992 132.358 27.875 131.858 27.875C131.188 27.875 130.58 27.7178 130.034 27.4034C129.492 27.0852 129.061 26.6117 128.739 25.983C128.42 25.3504 128.261 24.5587 128.261 23.608C128.261 22.6496 128.42 21.8409 128.739 21.1818C129.061 20.5189 129.494 20.017 130.04 19.6761C130.585 19.3314 131.193 19.1591 131.864 19.1591C132.375 19.1591 132.795 19.2462 133.125 19.4205C133.458 19.5909 133.723 19.7973 133.92 20.0398C134.117 20.2784 134.267 20.5038 134.369 20.7159H134.483V19.2727H136.511V28.142C136.511 28.8883 136.333 29.5057 135.977 29.9943C135.621 30.483 135.134 30.8485 134.517 31.0909C133.9 31.3333 133.199 31.4545 132.415 31.4545ZM132.432 26.2614C132.867 26.2614 133.239 26.1553 133.545 25.9432C133.852 25.7311 134.085 25.4261 134.244 25.0284C134.403 24.6307 134.483 24.1534 134.483 23.5966C134.483 23.0473 134.403 22.5663 134.244 22.1534C134.089 21.7405 133.858 21.4205 133.551 21.1932C133.248 20.9621 132.875 20.8466 132.432 20.8466C131.973 20.8466 131.591 20.9659 131.284 21.2045C130.977 21.4432 130.746 21.7708 130.591 22.1875C130.436 22.6004 130.358 23.0701 130.358 23.5966C130.358 24.1307 130.436 24.5985 130.591 25C130.75 25.3977 130.983 25.7083 131.29 25.9318C131.6 26.1515 131.981 26.2614 132.432 26.2614ZM140.676 22.8864V28H138.619V19.2727H140.585V20.7557H140.688C140.888 20.267 141.208 19.8788 141.648 19.5909C142.091 19.303 142.638 19.1591 143.29 19.1591C143.892 19.1591 144.417 19.2879 144.864 19.5455C145.314 19.803 145.663 20.1761 145.909 20.6648C146.159 21.1534 146.282 21.7462 146.278 22.4432V28H144.222V22.7614C144.222 22.178 144.07 21.7216 143.767 21.392C143.468 21.0625 143.053 20.8977 142.523 20.8977C142.163 20.8977 141.843 20.9773 141.562 21.1364C141.286 21.2917 141.068 21.517 140.909 21.8125C140.754 22.108 140.676 22.4659 140.676 22.8864ZM157.901 24.3295V19.2727H159.957V28H157.963V26.4489H157.872C157.675 26.9375 157.351 27.3371 156.901 27.6477C156.454 27.9583 155.902 28.1136 155.247 28.1136C154.675 28.1136 154.17 27.9867 153.73 27.733C153.295 27.4754 152.954 27.1023 152.707 26.6136C152.461 26.1212 152.338 25.5265 152.338 24.8295V19.2727H154.395V24.5114C154.395 25.0644 154.546 25.5038 154.849 25.8295C155.152 26.1553 155.55 26.3182 156.043 26.3182C156.346 26.3182 156.639 26.2443 156.923 26.0966C157.207 25.9489 157.44 25.7292 157.622 25.4375C157.808 25.142 157.901 24.7727 157.901 24.3295ZM162.072 31.2727V19.2727H164.095V20.7159H164.214C164.321 20.5038 164.47 20.2784 164.663 20.0398C164.857 19.7973 165.118 19.5909 165.447 19.4205C165.777 19.2462 166.197 19.1591 166.709 19.1591C167.383 19.1591 167.991 19.3314 168.533 19.6761C169.078 20.017 169.51 20.5227 169.828 21.1932C170.15 21.8598 170.311 22.678 170.311 23.6477C170.311 24.6061 170.154 25.4205 169.839 26.0909C169.525 26.7614 169.097 27.2727 168.555 27.625C168.014 27.9773 167.4 28.1534 166.714 28.1534C166.214 28.1534 165.8 28.0701 165.47 27.9034C165.141 27.7367 164.875 27.536 164.675 27.3011C164.478 27.0625 164.324 26.8371 164.214 26.625H164.129V31.2727H162.072ZM164.089 23.6364C164.089 24.2008 164.169 24.6951 164.328 25.1193C164.491 25.5436 164.724 25.875 165.027 26.1136C165.334 26.3485 165.705 26.4659 166.141 26.4659C166.595 26.4659 166.976 26.3447 167.283 26.1023C167.589 25.8561 167.821 25.5208 167.976 25.0966C168.135 24.6686 168.214 24.1818 168.214 23.6364C168.214 23.0947 168.137 22.6136 167.982 22.1932C167.826 21.7727 167.595 21.4432 167.288 21.2045C166.982 20.9659 166.599 20.8466 166.141 20.8466C165.701 20.8466 165.328 20.9621 165.021 21.1932C164.714 21.4242 164.482 21.7481 164.322 22.1648C164.167 22.5814 164.089 23.072 164.089 23.6364Z" fill="white"/>
</svg>
