<svg width="360" height="164" viewBox="0 0 360 164" fill="none" xmlns="http://www.w3.org/2000/svg">
<path d="M0 28C0 12.536 12.536 0 28 0C43.464 0 56 12.536 56 28C56 43.464 43.464 56 28 56C12.536 56 0 43.464 0 28Z" fill="#F4EBFF"/>
<path d="M24.5 34.4167H18.0833M21.5833 28H16.3333M24.5 21.5833H18.6667M33.8333 17.5L26.1375 28.2742C25.7969 28.7511 25.6266 28.9895 25.6339 29.1883C25.6403 29.3614 25.7233 29.5226 25.8604 29.6285C26.0179 29.75 26.3109 29.75 26.897 29.75H32.6667L31.5 38.5L39.1958 27.7258C39.5365 27.2489 39.7068 27.0105 39.6994 26.8117C39.693 26.6386 39.61 26.4774 39.4729 26.3715C39.3154 26.25 39.0224 26.25 38.4364 26.25H32.6667L33.8333 17.5Z" stroke="#7F56D9" stroke-width="2" stroke-linecap="round" stroke-linejoin="round"/>
<path d="M1.43182 88.794V84.8182H22.321V88.794H14.2287V111H9.52415V88.794H1.43182ZM30.0513 99.4943V111H25.4235V84.8182H29.949V94.7003H30.1791C30.6394 93.5923 31.351 92.7187 32.3141 92.0795C33.2857 91.4318 34.5215 91.108 36.0215 91.108C37.3851 91.108 38.574 91.3935 39.5882 91.9645C40.6024 92.5355 41.3865 93.3707 41.9405 94.4702C42.503 95.5696 42.7843 96.9119 42.7843 98.4972V111H38.1564V99.2131C38.1564 97.892 37.8155 96.8651 37.1337 96.1321C36.4604 95.3906 35.5144 95.0199 34.2956 95.0199C33.4774 95.0199 32.7445 95.1989 32.0968 95.5568C31.4576 95.9062 30.9547 96.4134 30.5882 97.0781C30.2303 97.7429 30.0513 98.5483 30.0513 99.4943ZM55.4748 111.384C53.506 111.384 51.8057 110.974 50.3739 110.156C48.9506 109.33 47.8555 108.162 47.0884 106.653C46.3214 105.136 45.9378 103.351 45.9378 101.297C45.9378 99.277 46.3214 97.5043 47.0884 95.9787C47.864 94.4446 48.9464 93.2514 50.3356 92.3991C51.7248 91.5384 53.3569 91.108 55.2319 91.108C56.4421 91.108 57.5841 91.304 58.658 91.696C59.7404 92.0795 60.6949 92.6761 61.5217 93.4858C62.3569 94.2955 63.0131 95.3267 63.4904 96.5795C63.9677 97.8239 64.2063 99.3068 64.2063 101.028V102.447H48.1111V99.3281H59.7702C59.7617 98.4418 59.5699 97.6534 59.1949 96.9631C58.8199 96.2642 58.2958 95.7145 57.6225 95.3139C56.9577 94.9134 56.1822 94.7131 55.2958 94.7131C54.3498 94.7131 53.5188 94.9432 52.8029 95.4034C52.087 95.8551 51.5288 96.4517 51.1282 97.1932C50.7361 97.9261 50.5359 98.7315 50.5273 99.6094V102.332C50.5273 103.474 50.7361 104.455 51.1538 105.273C51.5714 106.082 52.1552 106.705 52.9052 107.139C53.6552 107.565 54.533 107.778 55.5387 107.778C56.212 107.778 56.8214 107.685 57.3668 107.497C57.9123 107.301 58.3853 107.016 58.7859 106.641C59.1864 106.266 59.489 105.801 59.6935 105.247L64.0145 105.733C63.7418 106.875 63.2219 107.872 62.4549 108.724C61.6964 109.568 60.7248 110.224 59.5401 110.693C58.3555 111.153 57.0003 111.384 55.4748 111.384ZM84.1765 111.384C82.2589 111.384 80.5969 110.962 79.1907 110.118C77.7844 109.274 76.6935 108.094 75.9179 106.577C75.1509 105.06 74.7674 103.287 74.7674 101.259C74.7674 99.2301 75.1509 97.4531 75.9179 95.9276C76.6935 94.402 77.7844 93.2173 79.1907 92.3736C80.5969 91.5298 82.2589 91.108 84.1765 91.108C86.0941 91.108 87.756 91.5298 89.1623 92.3736C90.5685 93.2173 91.6552 94.402 92.4222 95.9276C93.1978 97.4531 93.5856 99.2301 93.5856 101.259C93.5856 103.287 93.1978 105.06 92.4222 106.577C91.6552 108.094 90.5685 109.274 89.1623 110.118C87.756 110.962 86.0941 111.384 84.1765 111.384ZM84.202 107.676C85.2418 107.676 86.1111 107.391 86.81 106.82C87.5089 106.24 88.0287 105.464 88.3696 104.493C88.7191 103.521 88.8938 102.439 88.8938 101.246C88.8938 100.044 88.7191 98.9574 88.3696 97.9858C88.0287 97.0057 87.5089 96.2259 86.81 95.6463C86.1111 95.0668 85.2418 94.777 84.202 94.777C83.1367 94.777 82.2503 95.0668 81.5429 95.6463C80.8441 96.2259 80.3199 97.0057 79.9705 97.9858C79.6296 98.9574 79.4591 100.044 79.4591 101.246C79.4591 102.439 79.6296 103.521 79.9705 104.493C80.3199 105.464 80.8441 106.24 81.5429 106.82C82.2503 107.391 83.1367 107.676 84.202 107.676ZM101.421 99.4943V111H96.7935V91.3636H101.217V94.7003H101.447C101.899 93.6009 102.619 92.7273 103.607 92.0795C104.605 91.4318 105.836 91.108 107.302 91.108C108.657 91.108 109.838 91.3977 110.843 91.9773C111.857 92.5568 112.641 93.3963 113.195 94.4957C113.758 95.5952 114.035 96.929 114.026 98.4972V111H109.399V99.2131C109.399 97.9006 109.058 96.8736 108.376 96.1321C107.703 95.3906 106.769 95.0199 105.576 95.0199C104.766 95.0199 104.046 95.1989 103.416 95.5568C102.793 95.9062 102.303 96.4134 101.945 97.0781C101.596 97.7429 101.421 98.5483 101.421 99.4943ZM122.639 84.8182V111H118.011V84.8182H122.639ZM129.554 118.364C128.923 118.364 128.34 118.313 127.803 118.21C127.274 118.116 126.852 118.006 126.537 117.878L127.611 114.273C128.284 114.469 128.885 114.563 129.413 114.554C129.942 114.545 130.406 114.379 130.807 114.055C131.216 113.74 131.561 113.212 131.842 112.47L132.239 111.409L125.118 91.3636H130.027L134.553 106.193H134.757L139.296 91.3636H144.217L136.355 113.378C135.989 114.418 135.503 115.308 134.898 116.05C134.293 116.8 133.551 117.371 132.673 117.763C131.804 118.163 130.764 118.364 129.554 118.364ZM163.475 111.384C161.515 111.384 159.831 110.953 158.425 110.092C157.027 109.232 155.949 108.043 155.191 106.526C154.441 105 154.066 103.244 154.066 101.259C154.066 99.2642 154.449 97.5043 155.216 95.9787C155.983 94.4446 157.066 93.2514 158.464 92.3991C159.87 91.5384 161.532 91.108 163.449 91.108C165.043 91.108 166.454 91.402 167.681 91.9901C168.917 92.5696 169.901 93.392 170.634 94.4574C171.367 95.5142 171.785 96.75 171.887 98.1648H167.464C167.285 97.2187 166.858 96.4304 166.185 95.7997C165.52 95.1605 164.63 94.8409 163.513 94.8409C162.567 94.8409 161.736 95.0966 161.02 95.608C160.304 96.1108 159.746 96.8352 159.346 97.7812C158.954 98.7273 158.758 99.8608 158.758 101.182C158.758 102.52 158.954 103.67 159.346 104.634C159.738 105.588 160.287 106.325 160.995 106.845C161.711 107.357 162.55 107.612 163.513 107.612C164.195 107.612 164.804 107.484 165.341 107.229C165.887 106.964 166.343 106.585 166.709 106.091C167.076 105.597 167.327 104.996 167.464 104.288H171.887C171.776 105.678 171.367 106.909 170.66 107.983C169.952 109.048 168.989 109.884 167.77 110.489C166.552 111.085 165.12 111.384 163.475 111.384ZM180.617 111.396C179.373 111.396 178.252 111.175 177.255 110.732C176.267 110.28 175.483 109.615 174.903 108.737C174.332 107.859 174.046 106.777 174.046 105.49C174.046 104.382 174.251 103.466 174.66 102.741C175.069 102.017 175.627 101.438 176.335 101.003C177.042 100.568 177.839 100.24 178.725 100.018C179.62 99.7884 180.545 99.6222 181.5 99.5199C182.65 99.4006 183.583 99.294 184.299 99.2003C185.015 99.098 185.535 98.9446 185.859 98.7401C186.191 98.527 186.358 98.1989 186.358 97.7557V97.679C186.358 96.7159 186.072 95.9702 185.501 95.4418C184.93 94.9134 184.108 94.6491 183.034 94.6491C181.9 94.6491 181.001 94.8963 180.336 95.3906C179.68 95.8849 179.237 96.4687 179.007 97.142L174.686 96.5284C175.027 95.3352 175.589 94.3381 176.373 93.5369C177.157 92.7273 178.116 92.1222 179.25 91.7216C180.383 91.3125 181.636 91.108 183.008 91.108C183.954 91.108 184.896 91.2188 185.833 91.4403C186.771 91.6619 187.627 92.0284 188.403 92.5398C189.179 93.0426 189.801 93.7287 190.269 94.598C190.747 95.4673 190.985 96.554 190.985 97.858V111H186.537V108.303H186.383C186.102 108.848 185.706 109.359 185.194 109.837C184.691 110.305 184.056 110.685 183.289 110.974C182.531 111.256 181.64 111.396 180.617 111.396ZM181.819 107.996C182.748 107.996 183.554 107.812 184.235 107.446C184.917 107.071 185.441 106.577 185.808 105.963C186.183 105.349 186.37 104.68 186.37 103.956V101.642C186.225 101.761 185.978 101.872 185.629 101.974C185.288 102.077 184.904 102.166 184.478 102.243C184.052 102.32 183.63 102.388 183.213 102.447C182.795 102.507 182.433 102.558 182.126 102.601C181.436 102.695 180.818 102.848 180.272 103.061C179.727 103.274 179.296 103.572 178.981 103.956C178.666 104.331 178.508 104.817 178.508 105.413C178.508 106.266 178.819 106.909 179.441 107.344C180.063 107.778 180.856 107.996 181.819 107.996ZM194.919 111V91.3636H199.406V94.6364H199.611C199.968 93.5028 200.582 92.6293 201.451 92.0156C202.329 91.3935 203.331 91.0824 204.456 91.0824C204.711 91.0824 204.997 91.0952 205.312 91.1207C205.636 91.1378 205.905 91.1676 206.118 91.2102V95.4673C205.922 95.3991 205.611 95.3395 205.184 95.2884C204.767 95.2287 204.362 95.1989 203.97 95.1989C203.126 95.1989 202.368 95.3821 201.694 95.7486C201.03 96.1065 200.505 96.6051 200.122 97.2443C199.738 97.8835 199.547 98.6207 199.547 99.456V111H194.919ZM214.951 111.345C213.408 111.345 212.027 110.949 210.809 110.156C209.59 109.364 208.627 108.213 207.919 106.705C207.212 105.196 206.858 103.364 206.858 101.207C206.858 99.0256 207.216 97.1847 207.932 95.6847C208.657 94.1761 209.632 93.0384 210.86 92.2713C212.087 91.4957 213.455 91.108 214.963 91.108C216.114 91.108 217.06 91.304 217.801 91.696C218.543 92.0795 219.131 92.544 219.566 93.0895C220 93.6264 220.337 94.1335 220.576 94.6108H220.767V84.8182H225.408V111H220.857V107.906H220.576C220.337 108.384 219.992 108.891 219.54 109.428C219.088 109.956 218.492 110.408 217.75 110.783C217.009 111.158 216.076 111.345 214.951 111.345ZM216.242 107.548C217.222 107.548 218.057 107.284 218.747 106.756C219.438 106.219 219.962 105.473 220.32 104.518C220.678 103.564 220.857 102.452 220.857 101.182C220.857 99.9119 220.678 98.8082 220.32 97.8707C219.97 96.9332 219.451 96.2045 218.76 95.6847C218.078 95.1648 217.239 94.9048 216.242 94.9048C215.21 94.9048 214.35 95.1733 213.659 95.7102C212.969 96.2472 212.449 96.9886 212.1 97.9347C211.75 98.8807 211.576 99.9631 211.576 101.182C211.576 102.409 211.75 103.504 212.1 104.467C212.458 105.422 212.982 106.176 213.672 106.73C214.371 107.276 215.228 107.548 216.242 107.548ZM240.706 118.364C240.075 118.364 239.491 118.313 238.954 118.21C238.426 118.116 238.004 118.006 237.688 117.878L238.762 114.273C239.436 114.469 240.036 114.563 240.565 114.554C241.093 114.545 241.558 114.379 241.958 114.055C242.367 113.74 242.713 113.212 242.994 112.47L243.39 111.409L236.269 91.3636H241.179L245.704 106.193H245.909L250.447 91.3636H255.369L247.507 113.378C247.14 114.418 246.654 115.308 246.049 116.05C245.444 116.8 244.703 117.371 243.825 117.763C242.956 118.163 241.916 118.364 240.706 118.364ZM265.749 111.384C263.831 111.384 262.169 110.962 260.763 110.118C259.357 109.274 258.266 108.094 257.49 106.577C256.723 105.06 256.34 103.287 256.34 101.259C256.34 99.2301 256.723 97.4531 257.49 95.9276C258.266 94.402 259.357 93.2173 260.763 92.3736C262.169 91.5298 263.831 91.108 265.749 91.108C267.666 91.108 269.328 91.5298 270.734 92.3736C272.141 93.2173 273.227 94.402 273.994 95.9276C274.77 97.4531 275.158 99.2301 275.158 101.259C275.158 103.287 274.77 105.06 273.994 106.577C273.227 108.094 272.141 109.274 270.734 110.118C269.328 110.962 267.666 111.384 265.749 111.384ZM265.774 107.676C266.814 107.676 267.683 107.391 268.382 106.82C269.081 106.24 269.601 105.464 269.942 104.493C270.291 103.521 270.466 102.439 270.466 101.246C270.466 100.044 270.291 98.9574 269.942 97.9858C269.601 97.0057 269.081 96.2259 268.382 95.6463C267.683 95.0668 266.814 94.777 265.774 94.777C264.709 94.777 263.823 95.0668 263.115 95.6463C262.416 96.2259 261.892 97.0057 261.543 97.9858C261.202 98.9574 261.031 100.044 261.031 101.246C261.031 102.439 261.202 103.521 261.543 104.493C261.892 105.464 262.416 106.24 263.115 106.82C263.823 107.391 264.709 107.676 265.774 107.676ZM290.881 102.741V91.3636H295.509V111H291.022V107.51H290.817C290.374 108.609 289.645 109.509 288.631 110.207C287.626 110.906 286.386 111.256 284.911 111.256C283.624 111.256 282.486 110.97 281.498 110.399C280.518 109.82 279.751 108.98 279.197 107.881C278.643 106.773 278.366 105.435 278.366 103.866V91.3636H282.994V103.151C282.994 104.395 283.334 105.384 284.016 106.116C284.698 106.849 285.593 107.216 286.701 107.216C287.383 107.216 288.043 107.05 288.682 106.717C289.322 106.385 289.846 105.891 290.255 105.234C290.672 104.57 290.881 103.739 290.881 102.741ZM304 84.8182V87.4261C304 88.1761 303.855 88.956 303.565 89.7656C303.284 90.5668 302.896 91.3338 302.402 92.0668C301.908 92.7912 301.345 93.4134 300.715 93.9332L298.567 92.5398C299.036 91.8324 299.445 91.0696 299.794 90.2514C300.144 89.4247 300.318 88.4915 300.318 87.4517V84.8182H304ZM311.682 84.8182V111H307.055V84.8182H311.682ZM320.349 84.8182V111H315.721V84.8182H320.349ZM11.071 155.384C9.10227 155.384 7.40199 154.974 5.97017 154.156C4.54688 153.33 3.4517 152.162 2.68466 150.653C1.91761 149.136 1.53409 147.351 1.53409 145.297C1.53409 143.277 1.91761 141.504 2.68466 139.979C3.46023 138.445 4.54261 137.251 5.93182 136.399C7.32102 135.538 8.95312 135.108 10.8281 135.108C12.0384 135.108 13.1804 135.304 14.2543 135.696C15.3366 136.08 16.2912 136.676 17.1179 137.486C17.9531 138.295 18.6094 139.327 19.0866 140.58C19.5639 141.824 19.8026 143.307 19.8026 145.028V146.447H3.70739V143.328H15.3665C15.358 142.442 15.1662 141.653 14.7912 140.963C14.4162 140.264 13.892 139.714 13.2188 139.314C12.554 138.913 11.7784 138.713 10.892 138.713C9.94602 138.713 9.11506 138.943 8.39915 139.403C7.68324 139.855 7.125 140.452 6.72443 141.193C6.33239 141.926 6.1321 142.732 6.12358 143.609V146.332C6.12358 147.474 6.33239 148.455 6.75 149.273C7.16761 150.082 7.75142 150.705 8.50142 151.139C9.25142 151.565 10.1293 151.778 11.1349 151.778C11.8082 151.778 12.4176 151.685 12.9631 151.497C13.5085 151.301 13.9815 151.016 14.3821 150.641C14.7827 150.266 15.0852 149.801 15.2898 149.247L19.6108 149.733C19.3381 150.875 18.8182 151.872 18.0511 152.724C17.2926 153.568 16.321 154.224 15.1364 154.693C13.9517 155.153 12.5966 155.384 11.071 155.384ZM39.975 135.364L32.9821 155H27.8684L20.8755 135.364H25.8102L30.323 149.95H30.5275L35.0531 135.364H39.975ZM50.4826 155.384C48.5138 155.384 46.8136 154.974 45.3817 154.156C43.9584 153.33 42.8633 152.162 42.0962 150.653C41.3292 149.136 40.9457 147.351 40.9457 145.297C40.9457 143.277 41.3292 141.504 42.0962 139.979C42.8718 138.445 43.9542 137.251 45.3434 136.399C46.7326 135.538 48.3647 135.108 50.2397 135.108C51.4499 135.108 52.592 135.304 53.6658 135.696C54.7482 136.08 55.7028 136.676 56.5295 137.486C57.3647 138.295 58.0209 139.327 58.4982 140.58C58.9755 141.824 59.2141 143.307 59.2141 145.028V146.447H43.119V143.328H54.778C54.7695 142.442 54.5778 141.653 54.2028 140.963C53.8278 140.264 53.3036 139.714 52.6303 139.314C51.9655 138.913 51.19 138.713 50.3036 138.713C49.3576 138.713 48.5266 138.943 47.8107 139.403C47.0948 139.855 46.5366 140.452 46.136 141.193C45.744 141.926 45.5437 142.732 45.5351 143.609V146.332C45.5351 147.474 45.744 148.455 46.1616 149.273C46.5792 150.082 47.163 150.705 47.913 151.139C48.663 151.565 49.5408 151.778 50.5465 151.778C51.2198 151.778 51.8292 151.685 52.3746 151.497C52.9201 151.301 53.3931 151.016 53.7937 150.641C54.1942 150.266 54.4968 149.801 54.7013 149.247L59.0224 149.733C58.7496 150.875 58.2297 151.872 57.4627 152.724C56.7042 153.568 55.7326 154.224 54.5479 154.693C53.3633 155.153 52.0082 155.384 50.4826 155.384ZM62.4092 155V135.364H66.8965V138.636H67.101C67.459 137.503 68.0726 136.629 68.9419 136.016C69.8198 135.393 70.8212 135.082 71.9462 135.082C72.2019 135.082 72.4874 135.095 72.8027 135.121C73.1266 135.138 73.395 135.168 73.6081 135.21V139.467C73.4121 139.399 73.101 139.339 72.6749 139.288C72.2573 139.229 71.8524 139.199 71.4604 139.199C70.6166 139.199 69.8581 139.382 69.1848 139.749C68.52 140.107 67.9959 140.605 67.6124 141.244C67.2288 141.884 67.0371 142.621 67.0371 143.456V155H62.4092ZM88.8002 143.494V155H84.1724V135.364H88.5957V138.7H88.8258C89.2775 137.601 89.9977 136.727 90.9863 136.08C91.9835 135.432 93.215 135.108 94.6809 135.108C96.036 135.108 97.2164 135.398 98.2221 135.977C99.2363 136.557 100.02 137.396 100.574 138.496C101.137 139.595 101.414 140.929 101.405 142.497V155H96.7775V143.213C96.7775 141.901 96.4366 140.874 95.7548 140.132C95.0815 139.391 94.1482 139.02 92.955 139.02C92.1454 139.02 91.4252 139.199 90.7945 139.557C90.1724 139.906 89.6823 140.413 89.3244 141.078C88.9749 141.743 88.8002 142.548 88.8002 143.494ZM114.083 155.384C112.114 155.384 110.414 154.974 108.982 154.156C107.559 153.33 106.464 152.162 105.697 150.653C104.93 149.136 104.546 147.351 104.546 145.297C104.546 143.277 104.93 141.504 105.697 139.979C106.472 138.445 107.555 137.251 108.944 136.399C110.333 135.538 111.965 135.108 113.84 135.108C115.05 135.108 116.192 135.304 117.266 135.696C118.349 136.08 119.303 136.676 120.13 137.486C120.965 138.295 121.621 139.327 122.099 140.58C122.576 141.824 122.815 143.307 122.815 145.028V146.447H106.719V143.328H118.379C118.37 142.442 118.178 141.653 117.803 140.963C117.428 140.264 116.904 139.714 116.231 139.314C115.566 138.913 114.79 138.713 113.904 138.713C112.958 138.713 112.127 138.943 111.411 139.403C110.695 139.855 110.137 140.452 109.736 141.193C109.344 141.926 109.144 142.732 109.136 143.609V146.332C109.136 147.474 109.344 148.455 109.762 149.273C110.18 150.082 110.763 150.705 111.513 151.139C112.263 151.565 113.141 151.778 114.147 151.778C114.82 151.778 115.43 151.685 115.975 151.497C116.521 151.301 116.994 151.016 117.394 150.641C117.795 150.266 118.097 149.801 118.302 149.247L122.623 149.733C122.35 150.875 121.83 151.872 121.063 152.724C120.305 153.568 119.333 154.224 118.148 154.693C116.964 155.153 115.609 155.384 114.083 155.384ZM134.703 155.384C132.734 155.384 131.034 154.974 129.602 154.156C128.179 153.33 127.084 152.162 126.317 150.653C125.549 149.136 125.166 147.351 125.166 145.297C125.166 143.277 125.549 141.504 126.317 139.979C127.092 138.445 128.174 137.251 129.564 136.399C130.953 135.538 132.585 135.108 134.46 135.108C135.67 135.108 136.812 135.304 137.886 135.696C138.969 136.08 139.923 136.676 140.75 137.486C141.585 138.295 142.241 139.327 142.719 140.58C143.196 141.824 143.434 143.307 143.434 145.028V146.447H127.339V143.328H138.998C138.99 142.442 138.798 141.653 138.423 140.963C138.048 140.264 137.524 139.714 136.851 139.314C136.186 138.913 135.41 138.713 134.524 138.713C133.578 138.713 132.747 138.943 132.031 139.403C131.315 139.855 130.757 140.452 130.356 141.193C129.964 141.926 129.764 142.732 129.755 143.609V146.332C129.755 147.474 129.964 148.455 130.382 149.273C130.799 150.082 131.383 150.705 132.133 151.139C132.883 151.565 133.761 151.778 134.767 151.778C135.44 151.778 136.049 151.685 136.595 151.497C137.14 151.301 137.613 151.016 138.014 150.641C138.415 150.266 138.717 149.801 138.922 149.247L143.243 149.733C142.97 150.875 142.45 151.872 141.683 152.724C140.924 153.568 139.953 154.224 138.768 154.693C137.584 155.153 136.228 155.384 134.703 155.384ZM153.916 155.345C152.374 155.345 150.993 154.949 149.774 154.156C148.556 153.364 147.593 152.213 146.885 150.705C146.178 149.196 145.824 147.364 145.824 145.207C145.824 143.026 146.182 141.185 146.898 139.685C147.622 138.176 148.598 137.038 149.826 136.271C151.053 135.496 152.421 135.108 153.929 135.108C155.08 135.108 156.026 135.304 156.767 135.696C157.509 136.08 158.097 136.544 158.532 137.089C158.966 137.626 159.303 138.134 159.541 138.611H159.733V128.818H164.374V155H159.823V151.906H159.541C159.303 152.384 158.958 152.891 158.506 153.428C158.054 153.956 157.458 154.408 156.716 154.783C155.975 155.158 155.041 155.345 153.916 155.345ZM155.208 151.548C156.188 151.548 157.023 151.284 157.713 150.756C158.404 150.219 158.928 149.473 159.286 148.518C159.644 147.564 159.823 146.452 159.823 145.182C159.823 143.912 159.644 142.808 159.286 141.871C158.936 140.933 158.416 140.205 157.726 139.685C157.044 139.165 156.205 138.905 155.208 138.905C154.176 138.905 153.316 139.173 152.625 139.71C151.935 140.247 151.415 140.989 151.066 141.935C150.716 142.881 150.541 143.963 150.541 145.182C150.541 146.409 150.716 147.504 151.066 148.467C151.424 149.422 151.948 150.176 152.638 150.73C153.337 151.276 154.193 151.548 155.208 151.548ZM171.436 155.281C170.661 155.281 169.996 155.009 169.442 154.463C168.888 153.918 168.615 153.253 168.624 152.469C168.615 151.702 168.888 151.045 169.442 150.5C169.996 149.955 170.661 149.682 171.436 149.682C172.186 149.682 172.838 149.955 173.392 150.5C173.955 151.045 174.24 151.702 174.249 152.469C174.24 152.989 174.104 153.462 173.84 153.888C173.584 154.314 173.243 154.655 172.817 154.911C172.399 155.158 171.939 155.281 171.436 155.281ZM200.141 136.016C200.022 134.899 199.519 134.03 198.633 133.408C197.755 132.786 196.613 132.474 195.206 132.474C194.218 132.474 193.37 132.624 192.662 132.922C191.955 133.22 191.414 133.625 191.039 134.136C190.664 134.648 190.472 135.232 190.464 135.888C190.464 136.433 190.587 136.906 190.834 137.307C191.09 137.707 191.435 138.048 191.87 138.33C192.304 138.602 192.786 138.832 193.314 139.02C193.843 139.207 194.375 139.365 194.912 139.493L197.367 140.107C198.356 140.337 199.306 140.648 200.218 141.04C201.138 141.432 201.961 141.926 202.685 142.523C203.418 143.119 203.998 143.839 204.424 144.683C204.85 145.527 205.063 146.516 205.063 147.649C205.063 149.183 204.671 150.534 203.887 151.702C203.103 152.861 201.969 153.768 200.486 154.425C199.012 155.072 197.226 155.396 195.13 155.396C193.093 155.396 191.324 155.081 189.824 154.45C188.333 153.82 187.165 152.899 186.321 151.689C185.486 150.479 185.035 149.004 184.966 147.266H189.633C189.701 148.178 189.982 148.936 190.476 149.541C190.971 150.146 191.614 150.598 192.407 150.896C193.208 151.195 194.103 151.344 195.091 151.344C196.123 151.344 197.026 151.19 197.802 150.884C198.586 150.568 199.199 150.134 199.643 149.58C200.086 149.017 200.312 148.361 200.32 147.611C200.312 146.929 200.111 146.366 199.719 145.923C199.327 145.472 198.777 145.097 198.07 144.798C197.371 144.491 196.553 144.219 195.616 143.98L192.637 143.213C190.481 142.659 188.776 141.82 187.523 140.695C186.279 139.561 185.657 138.057 185.657 136.182C185.657 134.639 186.074 133.288 186.91 132.129C187.753 130.97 188.9 130.071 190.348 129.432C191.797 128.784 193.438 128.46 195.27 128.46C197.128 128.46 198.756 128.784 200.154 129.432C201.56 130.071 202.664 130.962 203.465 132.104C204.266 133.237 204.679 134.541 204.705 136.016H200.141ZM208.367 155V135.364H212.995V155H208.367ZM210.693 132.577C209.96 132.577 209.33 132.334 208.801 131.848C208.273 131.354 208.009 130.761 208.009 130.071C208.009 129.372 208.273 128.78 208.801 128.294C209.33 127.8 209.96 127.553 210.693 127.553C211.435 127.553 212.066 127.8 212.585 128.294C213.114 128.78 213.378 129.372 213.378 130.071C213.378 130.761 213.114 131.354 212.585 131.848C212.066 132.334 211.435 132.577 210.693 132.577ZM217.033 155V135.364H221.457V138.7H221.687C222.096 137.575 222.774 136.697 223.72 136.067C224.666 135.428 225.795 135.108 227.107 135.108C228.437 135.108 229.558 135.432 230.47 136.08C231.39 136.719 232.038 137.592 232.413 138.7H232.617C233.052 137.609 233.785 136.74 234.816 136.092C235.856 135.436 237.087 135.108 238.511 135.108C240.318 135.108 241.792 135.679 242.934 136.821C244.076 137.963 244.647 139.629 244.647 141.82V155H240.006V142.536C240.006 141.317 239.683 140.426 239.035 139.864C238.387 139.293 237.595 139.007 236.657 139.007C235.541 139.007 234.667 139.357 234.036 140.055C233.414 140.746 233.103 141.645 233.103 142.753V155H228.565V142.344C228.565 141.33 228.258 140.52 227.644 139.915C227.039 139.31 226.247 139.007 225.266 139.007C224.602 139.007 223.997 139.178 223.451 139.518C222.906 139.851 222.471 140.324 222.147 140.938C221.823 141.543 221.661 142.25 221.661 143.06V155H217.033ZM248.622 162.364V135.364H253.173V138.611H253.442C253.68 138.134 254.017 137.626 254.452 137.089C254.886 136.544 255.474 136.08 256.216 135.696C256.957 135.304 257.903 135.108 259.054 135.108C260.571 135.108 261.939 135.496 263.158 136.271C264.385 137.038 265.356 138.176 266.072 139.685C266.797 141.185 267.159 143.026 267.159 145.207C267.159 147.364 266.805 149.196 266.098 150.705C265.391 152.213 264.427 153.364 263.209 154.156C261.99 154.949 260.609 155.345 259.067 155.345C257.942 155.345 257.008 155.158 256.267 154.783C255.525 154.408 254.929 153.956 254.477 153.428C254.034 152.891 253.689 152.384 253.442 151.906H253.25V162.364H248.622ZM253.16 145.182C253.16 146.452 253.339 147.564 253.697 148.518C254.064 149.473 254.588 150.219 255.27 150.756C255.96 151.284 256.795 151.548 257.775 151.548C258.798 151.548 259.655 151.276 260.345 150.73C261.035 150.176 261.555 149.422 261.905 148.467C262.263 147.504 262.442 146.409 262.442 145.182C262.442 143.963 262.267 142.881 261.918 141.935C261.568 140.989 261.048 140.247 260.358 139.71C259.668 139.173 258.807 138.905 257.775 138.905C256.787 138.905 255.947 139.165 255.257 139.685C254.567 140.205 254.043 140.933 253.685 141.871C253.335 142.808 253.16 143.912 253.16 145.182ZM275.03 128.818V155H270.402V128.818H275.03ZM287.762 155.384C285.793 155.384 284.093 154.974 282.661 154.156C281.238 153.33 280.143 152.162 279.376 150.653C278.609 149.136 278.225 147.351 278.225 145.297C278.225 143.277 278.609 141.504 279.376 139.979C280.151 138.445 281.234 137.251 282.623 136.399C284.012 135.538 285.644 135.108 287.519 135.108C288.729 135.108 289.871 135.304 290.945 135.696C292.028 136.08 292.982 136.676 293.809 137.486C294.644 138.295 295.3 139.327 295.778 140.58C296.255 141.824 296.494 143.307 296.494 145.028V146.447H280.398V143.328H292.057C292.049 142.442 291.857 141.653 291.482 140.963C291.107 140.264 290.583 139.714 289.91 139.314C289.245 138.913 288.469 138.713 287.583 138.713C286.637 138.713 285.806 138.943 285.09 139.403C284.374 139.855 283.816 140.452 283.415 141.193C283.023 141.926 282.823 142.732 282.815 143.609V146.332C282.815 147.474 283.023 148.455 283.441 149.273C283.859 150.082 284.442 150.705 285.192 151.139C285.942 151.565 286.82 151.778 287.826 151.778C288.499 151.778 289.109 151.685 289.654 151.497C290.199 151.301 290.672 151.016 291.073 150.641C291.474 150.266 291.776 149.801 291.981 149.247L296.302 149.733C296.029 150.875 295.509 151.872 294.742 152.724C293.984 153.568 293.012 154.224 291.827 154.693C290.643 155.153 289.288 155.384 287.762 155.384ZM302.539 155.281C301.764 155.281 301.099 155.009 300.545 154.463C299.991 153.918 299.718 153.253 299.727 152.469C299.718 151.702 299.991 151.045 300.545 150.5C301.099 149.955 301.764 149.682 302.539 149.682C303.289 149.682 303.941 149.955 304.495 150.5C305.058 151.045 305.343 151.702 305.352 152.469C305.343 152.989 305.207 153.462 304.943 153.888C304.687 154.314 304.346 154.655 303.92 154.911C303.503 155.158 303.042 155.281 302.539 155.281Z" fill="#181D27"/>
</svg>
