<svg width="258" height="60" viewBox="0 0 258 60" fill="none" xmlns="http://www.w3.org/2000/svg">
<path d="M0.5 10C0.5 4.47715 4.97715 0 10.5 0H121.5C127.023 0 131.5 4.47715 131.5 10V50C131.5 55.5228 127.023 60 121.5 60H10.5C4.97716 60 0.5 55.5228 0.5 50V10Z" fill="white"/>
<path d="M34.5 40C40.0228 40 44.5 35.5228 44.5 30C44.5 24.4772 40.0228 20 34.5 20C28.9772 20 24.5 24.4772 24.5 30C24.5 35.5228 28.9772 40 34.5 40Z" stroke="#414651" stroke-width="2" stroke-linecap="round" stroke-linejoin="round"/>
<path d="M32 26.9653C32 26.488 32 26.2494 32.0997 26.1162C32.1867 26.0001 32.3197 25.9274 32.4644 25.9171C32.6304 25.9052 32.8311 26.0343 33.2326 26.2924L37.9532 29.3271C38.3016 29.551 38.4758 29.663 38.5359 29.8054C38.5885 29.9298 38.5885 30.0702 38.5359 30.1946C38.4758 30.337 38.3016 30.449 37.9532 30.6729L33.2326 33.7076C32.8311 33.9657 32.6304 34.0948 32.4644 34.0829C32.3197 34.0726 32.1867 33.9999 32.0997 33.8838C32 33.7506 32 33.512 32 33.0347V26.9653Z" stroke="#414651" stroke-width="2" stroke-linecap="round" stroke-linejoin="round"/>
<path d="M62.2273 37H57.7912V23.9091H62.3168C63.6165 23.9091 64.733 24.1712 65.6662 24.6953C66.6037 25.2152 67.3239 25.9631 67.8267 26.9389C68.3295 27.9148 68.581 29.0824 68.581 30.4418C68.581 31.8054 68.3274 32.9773 67.8203 33.9574C67.3175 34.9375 66.5909 35.6896 65.6406 36.2138C64.6946 36.7379 63.5568 37 62.2273 37ZM60.1626 34.9482H62.1122C63.0241 34.9482 63.7848 34.782 64.3942 34.4496C65.0036 34.1129 65.4616 33.6122 65.7685 32.9474C66.0753 32.2784 66.2287 31.4432 66.2287 30.4418C66.2287 29.4403 66.0753 28.6094 65.7685 27.9489C65.4616 27.2841 65.0078 26.7876 64.407 26.4595C63.8104 26.1271 63.0689 25.9609 62.1825 25.9609H60.1626V34.9482ZM75.0785 37.1918C74.0941 37.1918 73.244 36.9872 72.5281 36.5781C71.8164 36.1648 71.2688 35.581 70.8853 34.8267C70.5018 34.0682 70.31 33.1754 70.31 32.1484C70.31 31.1385 70.5018 30.2521 70.8853 29.4893C71.2731 28.7223 71.8143 28.1257 72.5089 27.6996C73.2035 27.2692 74.0195 27.054 74.957 27.054C75.5621 27.054 76.1332 27.152 76.6701 27.348C77.2113 27.5398 77.6886 27.8381 78.1019 28.2429C78.5195 28.6477 78.8477 29.1634 79.0863 29.7898C79.3249 30.4119 79.4442 31.1534 79.4442 32.0142V32.7237H71.3967V31.1641H77.2262C77.2219 30.7209 77.1261 30.3267 76.9386 29.9815C76.7511 29.6321 76.489 29.3572 76.1523 29.157C75.82 28.9567 75.4322 28.8565 74.989 28.8565C74.516 28.8565 74.1005 28.9716 73.7425 29.2017C73.3846 29.4276 73.1055 29.7259 72.9052 30.0966C72.7092 30.4631 72.609 30.8658 72.6048 31.3047V32.6662C72.6048 33.2372 72.7092 33.7273 72.918 34.1364C73.1268 34.5412 73.4187 34.8523 73.7937 35.0696C74.1687 35.2827 74.6076 35.3892 75.1104 35.3892C75.4471 35.3892 75.7518 35.3423 76.0245 35.2486C76.2972 35.1506 76.5337 35.0078 76.734 34.8203C76.9343 34.6328 77.0856 34.4006 77.1879 34.1236L79.3484 34.3665C79.212 34.9375 78.9521 35.4361 78.5685 35.8622C78.1893 36.2841 77.7035 36.6122 77.1112 36.8466C76.5188 37.0767 75.8413 37.1918 75.0785 37.1918ZM81.4018 37V27.1818H83.6135V28.8501H83.7285C83.9331 28.2876 84.2718 27.8487 84.7449 27.5334C85.2179 27.2138 85.7825 27.054 86.4387 27.054C87.1035 27.054 87.6639 27.2159 88.1199 27.5398C88.5801 27.8594 88.9039 28.2962 89.0914 28.8501H89.1937C89.411 28.3047 89.7775 27.87 90.2931 27.5462C90.813 27.218 91.4288 27.054 92.1404 27.054C93.0439 27.054 93.7811 27.3395 94.3521 27.9105C94.9231 28.4815 95.2086 29.3146 95.2086 30.4098V37H92.8883V30.7678C92.8883 30.1584 92.7264 29.7131 92.4025 29.4318C92.0787 29.1463 91.6824 29.0036 91.2136 29.0036C90.6554 29.0036 90.2186 29.1783 89.9032 29.5277C89.5922 29.8729 89.4366 30.3224 89.4366 30.8764V37H87.1674V30.6719C87.1674 30.1648 87.014 29.7599 86.7072 29.4574C86.4047 29.1548 86.0083 29.0036 85.5183 29.0036C85.1859 29.0036 84.8833 29.0888 84.6106 29.2592C84.3379 29.4254 84.1206 29.6619 83.9586 29.9688C83.7967 30.2713 83.7157 30.625 83.7157 31.0298V37H81.4018ZM101.839 37.1918C100.88 37.1918 100.049 36.9808 99.3459 36.5589C98.6428 36.1371 98.0973 35.5469 97.7095 34.7884C97.326 34.0298 97.1342 33.1435 97.1342 32.1293C97.1342 31.1151 97.326 30.2266 97.7095 29.4638C98.0973 28.701 98.6428 28.1087 99.3459 27.6868C100.049 27.2649 100.88 27.054 101.839 27.054C102.798 27.054 103.629 27.2649 104.332 27.6868C105.035 28.1087 105.578 28.701 105.962 29.4638C106.349 30.2266 106.543 31.1151 106.543 32.1293C106.543 33.1435 106.349 34.0298 105.962 34.7884C105.578 35.5469 105.035 36.1371 104.332 36.5589C103.629 36.9808 102.798 37.1918 101.839 37.1918ZM101.852 35.3381C102.371 35.3381 102.806 35.1953 103.156 34.9098C103.505 34.62 103.765 34.2322 103.935 33.7464C104.11 33.2607 104.197 32.7195 104.197 32.1229C104.197 31.522 104.11 30.9787 103.935 30.4929C103.765 30.0028 103.505 29.6129 103.156 29.3232C102.806 29.0334 102.371 28.8885 101.852 28.8885C101.319 28.8885 100.876 29.0334 100.522 29.3232C100.173 29.6129 99.9105 30.0028 99.7358 30.4929C99.5653 30.9787 99.4801 31.522 99.4801 32.1229C99.4801 32.7195 99.5653 33.2607 99.7358 33.7464C99.9105 34.2322 100.173 34.62 100.522 34.9098C100.876 35.1953 101.319 35.3381 101.852 35.3381Z" fill="#414651"/>
<path d="M143.5 10C143.5 4.47715 147.977 0 153.5 0H247.5C253.023 0 257.5 4.47715 257.5 10V50C257.5 55.5228 253.023 60 247.5 60H153.5C147.977 60 143.5 55.5228 143.5 50V10Z" fill="#7F56D9"/>
<path d="M175.906 27.5078C175.846 26.9496 175.594 26.5149 175.151 26.2038C174.712 25.8928 174.141 25.7372 173.438 25.7372C172.944 25.7372 172.52 25.8118 172.166 25.9609C171.813 26.1101 171.542 26.3125 171.354 26.5682C171.167 26.8239 171.071 27.1158 171.067 27.4439C171.067 27.7166 171.129 27.9531 171.252 28.1534C171.38 28.3537 171.553 28.5241 171.77 28.6648C171.987 28.8011 172.228 28.9162 172.492 29.0099C172.756 29.1037 173.023 29.1825 173.291 29.2464L174.518 29.5533C175.013 29.6683 175.488 29.8239 175.944 30.0199C176.404 30.2159 176.815 30.4631 177.178 30.7614C177.544 31.0597 177.834 31.4197 178.047 31.8416C178.26 32.2635 178.366 32.7578 178.366 33.3246C178.366 34.0916 178.17 34.767 177.778 35.3509C177.386 35.9304 176.82 36.3842 176.078 36.7124C175.341 37.0362 174.448 37.1982 173.4 37.1982C172.381 37.1982 171.497 37.0405 170.747 36.7251C170.001 36.4098 169.418 35.9496 168.996 35.3445C168.578 34.7393 168.352 34.0021 168.318 33.1328H170.651C170.685 33.5888 170.826 33.968 171.073 34.2706C171.32 34.5732 171.642 34.799 172.038 34.9482C172.439 35.0973 172.886 35.1719 173.381 35.1719C173.896 35.1719 174.348 35.0952 174.736 34.9418C175.128 34.7841 175.435 34.5668 175.656 34.2898C175.878 34.0085 175.991 33.6804 175.995 33.3054C175.991 32.9645 175.891 32.6832 175.695 32.4616C175.499 32.2358 175.224 32.0483 174.87 31.8991C174.521 31.7457 174.112 31.6094 173.643 31.4901L172.153 31.1065C171.075 30.8295 170.223 30.4098 169.597 29.8473C168.974 29.2805 168.663 28.5284 168.663 27.5909C168.663 26.8196 168.872 26.1442 169.29 25.5646C169.712 24.9851 170.285 24.5355 171.009 24.2159C171.734 23.892 172.554 23.7301 173.47 23.7301C174.399 23.7301 175.213 23.892 175.912 24.2159C176.615 24.5355 177.167 24.9808 177.567 25.5518C177.968 26.1186 178.175 26.7706 178.188 27.5078H175.906ZM180.378 37V27.1818H182.692V37H180.378ZM181.542 25.7884C181.175 25.7884 180.86 25.6669 180.596 25.424C180.331 25.1768 180.199 24.8807 180.199 24.5355C180.199 24.1861 180.331 23.8899 180.596 23.647C180.86 23.3999 181.175 23.2763 181.542 23.2763C181.912 23.2763 182.228 23.3999 182.488 23.647C182.752 23.8899 182.884 24.1861 182.884 24.5355C182.884 24.8807 182.752 25.1768 182.488 25.424C182.228 25.6669 181.912 25.7884 181.542 25.7884ZM189.342 40.8864C188.511 40.8864 187.797 40.7734 187.2 40.5476C186.604 40.326 186.124 40.0277 185.762 39.6527C185.4 39.2777 185.148 38.8622 185.008 38.4062L187.092 37.9013C187.185 38.093 187.322 38.2827 187.501 38.4702C187.68 38.6619 187.92 38.8196 188.223 38.9432C188.53 39.071 188.915 39.1349 189.38 39.1349C190.036 39.1349 190.58 38.9751 191.01 38.6555C191.44 38.3402 191.656 37.8203 191.656 37.0959V35.2358H191.54C191.421 35.4744 191.246 35.7195 191.016 35.9709C190.79 36.2223 190.49 36.4332 190.115 36.6037C189.744 36.7741 189.278 36.8594 188.715 36.8594C187.961 36.8594 187.277 36.6825 186.663 36.3288C186.054 35.9709 185.568 35.4382 185.206 34.7308C184.848 34.0192 184.669 33.1286 184.669 32.0589C184.669 30.9808 184.848 30.071 185.206 29.3295C185.568 28.5838 186.056 28.0192 186.67 27.6357C187.283 27.2479 187.967 27.054 188.722 27.054C189.297 27.054 189.77 27.152 190.141 27.348C190.516 27.5398 190.814 27.772 191.036 28.0447C191.257 28.3132 191.425 28.5668 191.54 28.8054H191.668V27.1818H193.95V37.1598C193.95 37.9993 193.75 38.6939 193.349 39.2436C192.949 39.7933 192.401 40.2045 191.707 40.4773C191.012 40.75 190.224 40.8864 189.342 40.8864ZM189.361 35.044C189.851 35.044 190.268 34.9247 190.614 34.6861C190.959 34.4474 191.221 34.1044 191.4 33.657C191.579 33.2095 191.668 32.6726 191.668 32.0462C191.668 31.4283 191.579 30.8871 191.4 30.4226C191.225 29.9581 190.965 29.598 190.62 29.3423C190.279 29.0824 189.859 28.9524 189.361 28.9524C188.845 28.9524 188.415 29.0866 188.07 29.3551C187.724 29.6236 187.464 29.9922 187.29 30.4609C187.115 30.9254 187.028 31.4538 187.028 32.0462C187.028 32.647 187.115 33.1733 187.29 33.625C187.469 34.0724 187.731 34.4219 188.076 34.6733C188.425 34.9205 188.854 35.044 189.361 35.044ZM198.636 31.2472V37H196.322V27.1818H198.533V28.8501H198.648C198.874 28.3004 199.234 27.8636 199.729 27.5398C200.227 27.2159 200.843 27.054 201.576 27.054C202.254 27.054 202.844 27.1989 203.347 27.4886C203.854 27.7784 204.246 28.1982 204.523 28.7479C204.804 29.2976 204.942 29.9645 204.938 30.7486V37H202.624V31.1065C202.624 30.4503 202.454 29.9368 202.113 29.5661C201.776 29.1953 201.31 29.0099 200.713 29.0099C200.308 29.0099 199.948 29.0994 199.633 29.2784C199.322 29.4531 199.077 29.7067 198.898 30.0391C198.723 30.3714 198.636 30.7741 198.636 31.2472ZM218.013 32.8707V27.1818H220.327V37H218.083V35.255H217.981C217.76 35.8047 217.395 36.2543 216.888 36.6037C216.385 36.9531 215.765 37.1278 215.028 37.1278C214.385 37.1278 213.816 36.9851 213.321 36.6996C212.831 36.4098 212.448 35.9901 212.171 35.4403C211.894 34.8864 211.755 34.2173 211.755 33.4332V27.1818H214.069V33.0753C214.069 33.6974 214.24 34.1918 214.581 34.5582C214.922 34.9247 215.369 35.108 215.923 35.108C216.264 35.108 216.594 35.0249 216.914 34.8587C217.233 34.6925 217.495 34.4453 217.7 34.1172C217.909 33.7848 218.013 33.3693 218.013 32.8707ZM222.706 40.6818V27.1818H224.982V28.8054H225.116C225.236 28.5668 225.404 28.3132 225.621 28.0447C225.839 27.772 226.133 27.5398 226.503 27.348C226.874 27.152 227.347 27.054 227.922 27.054C228.681 27.054 229.365 27.2479 229.974 27.6357C230.588 28.0192 231.074 28.5881 231.432 29.3423C231.794 30.0923 231.975 31.0128 231.975 32.1037C231.975 33.1818 231.798 34.098 231.444 34.8523C231.091 35.6065 230.609 36.1818 230 36.5781C229.39 36.9744 228.7 37.1726 227.929 37.1726C227.366 37.1726 226.9 37.0788 226.529 36.8913C226.158 36.7038 225.86 36.478 225.634 36.2138C225.412 35.9453 225.24 35.6918 225.116 35.4531H225.02V40.6818H222.706ZM224.976 32.0909C224.976 32.7259 225.065 33.282 225.244 33.7592C225.427 34.2365 225.689 34.6094 226.03 34.8778C226.376 35.142 226.793 35.2741 227.283 35.2741C227.795 35.2741 228.223 35.1378 228.568 34.8651C228.913 34.5881 229.173 34.2109 229.348 33.7337C229.527 33.2521 229.616 32.7045 229.616 32.0909C229.616 31.4815 229.529 30.9403 229.354 30.4673C229.18 29.9943 228.92 29.6236 228.574 29.3551C228.229 29.0866 227.799 28.9524 227.283 28.9524C226.789 28.9524 226.369 29.0824 226.024 29.3423C225.679 29.6023 225.417 29.9666 225.238 30.4354C225.063 30.9041 224.976 31.456 224.976 32.0909Z" fill="white"/>
</svg>
